# xmcd
#
# Track frame offsets:
#	150
#	15653
#	31404
#	50121
#	70884
#	90133
#	112596
#	131554
#	154244
#	171394
#	187850
#
# Disc length: 2761 seconds
#
# Revision: 0
# Processed by: cddbd v1.5.1PL0 Copyright (c) Steve Scherf et al.
# Submitted via: EasyCDDAExtractor 8.0.2.1
#
DISCID=840ac70b
DTITLE=Gary Burr - Marianne's
DYEAR=2004
DGENRE=Country
TTITLE0=I'll Leave All That To You
TTITLE1=This Love
TTITLE2=Three Good Lies
TTITLE3=My Life Is On The Wire
TTITLE4=Nicely Done
TTITLE5=Up And Flying
TTITLE6=A Thousand Ways To Cry
TTITLE7=Two Different Things
TTITLE8=Salvation
TTITLE9=I Will Not Be A Mistake
TTITLE10=Younger
EXTD=
EXTT0=
EXTT1=
EXTT2=
EXTT3=
EXTT4=
EXTT5=
EXTT6=
EXTT7=
EXTT8=
EXTT9=
EXTT10=
PLAYORDER=
